<mxfile host="app.diagrams.net" modified="2023-01-30T15:00:14.900Z" agent="5.0 (Macintosh; Intel Mac OS X 10_15_7) AppleWebKit/537.36 (KHTML, like Gecko) Chrome/108.0.0.0 YaBrowser/23.1.0.2937 Yowser/2.5 Safari/537.36" etag="sLjQsXg7KptpcpUOPfzF" version="20.8.11" type="github">
  <diagram id="TX-4O-HPPp-Gp5KOa30i" name="Страница 1">
    <mxGraphModel dx="2448" dy="1229" grid="1" gridSize="10" guides="1" tooltips="1" connect="1" arrows="1" fold="1" page="1" pageScale="1" pageWidth="827" pageHeight="1169" math="0" shadow="0">
      <root>
        <mxCell id="0" />
        <mxCell id="1" parent="0" />
        <mxCell id="0IPEi7Ju92eTUmT9peIH-25" value="" style="edgeStyle=orthogonalEdgeStyle;rounded=0;orthogonalLoop=1;jettySize=auto;html=1;" parent="1" source="0IPEi7Ju92eTUmT9peIH-23" target="0IPEi7Ju92eTUmT9peIH-24" edge="1">
          <mxGeometry relative="1" as="geometry" />
        </mxCell>
        <mxCell id="0IPEi7Ju92eTUmT9peIH-23" value="request" style="rounded=0;whiteSpace=wrap;html=1;" parent="1" vertex="1">
          <mxGeometry x="250" y="590" width="120" height="60" as="geometry" />
        </mxCell>
        <mxCell id="0IPEi7Ju92eTUmT9peIH-28" value="" style="edgeStyle=orthogonalEdgeStyle;rounded=0;orthogonalLoop=1;jettySize=auto;html=1;" parent="1" source="0IPEi7Ju92eTUmT9peIH-24" target="0IPEi7Ju92eTUmT9peIH-27" edge="1">
          <mxGeometry relative="1" as="geometry" />
        </mxCell>
        <mxCell id="0IPEi7Ju92eTUmT9peIH-24" value="fetch data" style="rounded=0;whiteSpace=wrap;html=1;" parent="1" vertex="1">
          <mxGeometry x="250" y="730" width="120" height="60" as="geometry" />
        </mxCell>
        <mxCell id="0IPEi7Ju92eTUmT9peIH-31" value="" style="edgeStyle=orthogonalEdgeStyle;rounded=0;orthogonalLoop=1;jettySize=auto;html=1;" parent="1" source="0IPEi7Ju92eTUmT9peIH-27" target="0IPEi7Ju92eTUmT9peIH-30" edge="1">
          <mxGeometry relative="1" as="geometry" />
        </mxCell>
        <mxCell id="0IPEi7Ju92eTUmT9peIH-27" value="render (JSX)" style="whiteSpace=wrap;html=1;rounded=0;" parent="1" vertex="1">
          <mxGeometry x="250" y="870" width="120" height="60" as="geometry" />
        </mxCell>
        <mxCell id="0IPEi7Ju92eTUmT9peIH-30" value="send(html)" style="whiteSpace=wrap;html=1;rounded=0;" parent="1" vertex="1">
          <mxGeometry x="250" y="1010" width="120" height="60" as="geometry" />
        </mxCell>
        <mxCell id="0IPEi7Ju92eTUmT9peIH-32" value="" style="edgeStyle=orthogonalEdgeStyle;rounded=0;orthogonalLoop=1;jettySize=auto;html=1;" parent="1" source="0IPEi7Ju92eTUmT9peIH-33" target="0IPEi7Ju92eTUmT9peIH-35" edge="1">
          <mxGeometry relative="1" as="geometry" />
        </mxCell>
        <mxCell id="0IPEi7Ju92eTUmT9peIH-33" value="request" style="rounded=0;whiteSpace=wrap;html=1;" parent="1" vertex="1">
          <mxGeometry x="630" y="560" width="120" height="60" as="geometry" />
        </mxCell>
        <mxCell id="0IPEi7Ju92eTUmT9peIH-34" value="" style="edgeStyle=orthogonalEdgeStyle;rounded=0;orthogonalLoop=1;jettySize=auto;html=1;" parent="1" source="0IPEi7Ju92eTUmT9peIH-35" target="0IPEi7Ju92eTUmT9peIH-37" edge="1">
          <mxGeometry relative="1" as="geometry">
            <Array as="points">
              <mxPoint x="650" y="800" />
              <mxPoint x="550" y="800" />
            </Array>
          </mxGeometry>
        </mxCell>
        <mxCell id="0IPEi7Ju92eTUmT9peIH-40" value="" style="edgeStyle=orthogonalEdgeStyle;rounded=0;orthogonalLoop=1;jettySize=auto;html=1;" parent="1" source="0IPEi7Ju92eTUmT9peIH-35" target="0IPEi7Ju92eTUmT9peIH-39" edge="1">
          <mxGeometry relative="1" as="geometry" />
        </mxCell>
        <mxCell id="0IPEi7Ju92eTUmT9peIH-47" style="edgeStyle=orthogonalEdgeStyle;rounded=0;orthogonalLoop=1;jettySize=auto;html=1;" parent="1" source="0IPEi7Ju92eTUmT9peIH-35" target="0IPEi7Ju92eTUmT9peIH-41" edge="1">
          <mxGeometry relative="1" as="geometry" />
        </mxCell>
        <mxCell id="0IPEi7Ju92eTUmT9peIH-48" style="edgeStyle=orthogonalEdgeStyle;rounded=0;orthogonalLoop=1;jettySize=auto;html=1;" parent="1" source="0IPEi7Ju92eTUmT9peIH-35" target="0IPEi7Ju92eTUmT9peIH-42" edge="1">
          <mxGeometry relative="1" as="geometry">
            <Array as="points">
              <mxPoint x="730" y="800" />
              <mxPoint x="820" y="800" />
            </Array>
          </mxGeometry>
        </mxCell>
        <mxCell id="0IPEi7Ju92eTUmT9peIH-35" value="get widgets&lt;br&gt;(по дереву собираются контроллеры)" style="rounded=0;whiteSpace=wrap;html=1;" parent="1" vertex="1">
          <mxGeometry x="630" y="700" width="120" height="60" as="geometry" />
        </mxCell>
        <mxCell id="0IPEi7Ju92eTUmT9peIH-36" value="" style="edgeStyle=orthogonalEdgeStyle;rounded=0;orthogonalLoop=1;jettySize=auto;html=1;" parent="1" source="0IPEi7Ju92eTUmT9peIH-37" target="0IPEi7Ju92eTUmT9peIH-38" edge="1">
          <mxGeometry relative="1" as="geometry" />
        </mxCell>
        <mxCell id="0IPEi7Ju92eTUmT9peIH-37" value="render (JSX)" style="whiteSpace=wrap;html=1;rounded=0;" parent="1" vertex="1">
          <mxGeometry x="490" y="870" width="120" height="60" as="geometry" />
        </mxCell>
        <mxCell id="0IPEi7Ju92eTUmT9peIH-50" value="" style="edgeStyle=orthogonalEdgeStyle;rounded=0;orthogonalLoop=1;jettySize=auto;html=1;" parent="1" source="0IPEi7Ju92eTUmT9peIH-38" target="0IPEi7Ju92eTUmT9peIH-49" edge="1">
          <mxGeometry relative="1" as="geometry">
            <Array as="points">
              <mxPoint x="550" y="1120" />
              <mxPoint x="680" y="1120" />
            </Array>
          </mxGeometry>
        </mxCell>
        <mxCell id="0IPEi7Ju92eTUmT9peIH-38" value="render (widget.component)" style="whiteSpace=wrap;html=1;rounded=0;" parent="1" vertex="1">
          <mxGeometry x="490" y="1010" width="120" height="60" as="geometry" />
        </mxCell>
        <mxCell id="0IPEi7Ju92eTUmT9peIH-39" value="&lt;div style=&quot;text-align: left;&quot;&gt;&lt;span style=&quot;background-color: initial;&quot;&gt;[&lt;/span&gt;&lt;/div&gt;&lt;div style=&quot;text-align: left;&quot;&gt;&lt;span style=&quot;background-color: initial;&quot;&gt;{&lt;/span&gt;&lt;/div&gt;&lt;div style=&quot;text-align: left;&quot;&gt;&lt;span style=&quot;background-color: initial;&quot;&gt;fetchData: () =&amp;gt; {}&lt;/span&gt;&lt;/div&gt;&lt;div style=&quot;text-align: left;&quot;&gt;&lt;span style=&quot;background-color: initial;&quot;&gt;component: () =&amp;gt; {}&lt;/span&gt;&lt;/div&gt;&lt;div style=&quot;text-align: left;&quot;&gt;&lt;span style=&quot;background-color: initial;&quot;&gt;}&lt;/span&gt;&lt;/div&gt;&lt;div style=&quot;text-align: left;&quot;&gt;&lt;span style=&quot;background-color: initial;&quot;&gt;]&lt;/span&gt;&lt;/div&gt;" style="whiteSpace=wrap;html=1;rounded=0;" parent="1" vertex="1">
          <mxGeometry x="835" y="680" width="120" height="100" as="geometry" />
        </mxCell>
        <mxCell id="0IPEi7Ju92eTUmT9peIH-45" style="edgeStyle=orthogonalEdgeStyle;rounded=0;orthogonalLoop=1;jettySize=auto;html=1;" parent="1" source="0IPEi7Ju92eTUmT9peIH-41" target="0IPEi7Ju92eTUmT9peIH-43" edge="1">
          <mxGeometry relative="1" as="geometry" />
        </mxCell>
        <mxCell id="0IPEi7Ju92eTUmT9peIH-41" value="render (JSX)" style="whiteSpace=wrap;html=1;rounded=0;" parent="1" vertex="1">
          <mxGeometry x="630" y="870" width="120" height="60" as="geometry" />
        </mxCell>
        <mxCell id="0IPEi7Ju92eTUmT9peIH-46" style="edgeStyle=orthogonalEdgeStyle;rounded=0;orthogonalLoop=1;jettySize=auto;html=1;" parent="1" source="0IPEi7Ju92eTUmT9peIH-42" target="0IPEi7Ju92eTUmT9peIH-44" edge="1">
          <mxGeometry relative="1" as="geometry" />
        </mxCell>
        <mxCell id="0IPEi7Ju92eTUmT9peIH-42" value="render (JSX)" style="whiteSpace=wrap;html=1;rounded=0;" parent="1" vertex="1">
          <mxGeometry x="760" y="870" width="120" height="60" as="geometry" />
        </mxCell>
        <mxCell id="0IPEi7Ju92eTUmT9peIH-51" value="" style="edgeStyle=orthogonalEdgeStyle;rounded=0;orthogonalLoop=1;jettySize=auto;html=1;" parent="1" source="0IPEi7Ju92eTUmT9peIH-43" target="0IPEi7Ju92eTUmT9peIH-38" edge="1">
          <mxGeometry relative="1" as="geometry" />
        </mxCell>
        <mxCell id="0IPEi7Ju92eTUmT9peIH-52" style="edgeStyle=orthogonalEdgeStyle;rounded=0;orthogonalLoop=1;jettySize=auto;html=1;" parent="1" source="0IPEi7Ju92eTUmT9peIH-43" target="0IPEi7Ju92eTUmT9peIH-49" edge="1">
          <mxGeometry relative="1" as="geometry" />
        </mxCell>
        <mxCell id="0IPEi7Ju92eTUmT9peIH-43" value="render (widget.component)" style="whiteSpace=wrap;html=1;rounded=0;" parent="1" vertex="1">
          <mxGeometry x="630" y="1010" width="120" height="60" as="geometry" />
        </mxCell>
        <mxCell id="0IPEi7Ju92eTUmT9peIH-53" style="edgeStyle=orthogonalEdgeStyle;rounded=0;orthogonalLoop=1;jettySize=auto;html=1;" parent="1" source="0IPEi7Ju92eTUmT9peIH-44" target="0IPEi7Ju92eTUmT9peIH-49" edge="1">
          <mxGeometry relative="1" as="geometry">
            <Array as="points">
              <mxPoint x="820" y="1120" />
              <mxPoint x="680" y="1120" />
            </Array>
          </mxGeometry>
        </mxCell>
        <mxCell id="0IPEi7Ju92eTUmT9peIH-44" value="render (widget.component)" style="whiteSpace=wrap;html=1;rounded=0;" parent="1" vertex="1">
          <mxGeometry x="760" y="1010" width="120" height="60" as="geometry" />
        </mxCell>
        <mxCell id="0IPEi7Ju92eTUmT9peIH-49" value="send(html)" style="whiteSpace=wrap;html=1;rounded=0;" parent="1" vertex="1">
          <mxGeometry x="620" y="1150" width="120" height="60" as="geometry" />
        </mxCell>
      </root>
    </mxGraphModel>
  </diagram>
</mxfile>
